<svg width="243" height="33" viewBox="0 0 243 33" fill="none" xmlns="http://www.w3.org/2000/svg">
<g filter="url(#filter0_d_0_2036)">
<path fill-rule="evenodd" clip-rule="evenodd" d="M78.7514 22.8595C78.7514 23.3664 78.4961 23.6198 77.9854 23.6198H68.9885C68.7712 23.6198 68.5946 23.5565 68.4588 23.4298C68.323 23.303 68.2551 23.124 68.2551 22.8926C68.2551 22.6942 68.3013 22.5344 68.3936 22.4132C68.486 22.292 68.6299 22.1928 68.8255 22.1157L69.5264 21.9008C69.7002 21.8457 69.836 21.741 69.9338 21.5868C70.0316 21.4325 70.0805 21.2121 70.0805 20.9256V11.3719C70.0805 11.2176 70.0425 11.0882 69.9664 10.9835C69.8904 10.8788 69.7491 10.7824 69.5427 10.6942L68.5974 10.3802C68.3474 10.259 68.1682 10.1295 68.0595 9.99174C67.9508 9.85399 67.8965 9.68595 67.8965 9.4876C67.8965 9.28926 67.9644 9.12672 68.1002 9L68.1536 8.95545C68.2837 8.85843 68.4534 8.80992 68.6625 8.80992H70.0928L70.0815 8.71333C70.051 8.52014 69.9746 8.33471 69.8523 8.15702C69.6894 7.92011 69.5046 7.65289 69.2982 7.35537C69.0917 7.05785 68.907 6.70248 68.744 6.28926C68.5811 5.87603 68.4996 5.36639 68.4996 4.76033C68.4996 3.3168 68.9885 2.16253 69.9664 1.29752C70.9444 0.432507 72.3352 0 74.1389 0C75.3015 0 76.2659 0.187328 77.0319 0.561983C77.798 0.936639 78.3711 1.43526 78.7514 2.05785C79.1317 2.68044 79.3219 3.36088 79.3219 4.09917C79.3219 4.9697 79.0964 5.62259 78.6455 6.05785C78.1946 6.49311 77.616 6.71074 76.9097 6.71074C76.1273 6.71074 75.4971 6.4573 75.019 5.95041C74.5409 5.44353 74.3019 4.77135 74.3019 3.93388V2.46281C74.3019 2.07713 74.2258 1.79339 74.0737 1.61157C73.9216 1.42975 73.688 1.33884 73.3729 1.33884C72.9708 1.33884 72.6666 1.47658 72.4601 1.75207C72.2537 2.02755 72.1505 2.42424 72.1505 2.94215C72.1505 3.47107 72.2727 3.96694 72.5172 4.42975C72.7617 4.89256 73.0632 5.32507 73.4218 5.72727C73.7803 6.12948 74.1389 6.51515 74.4975 6.8843C74.856 7.25344 75.1576 7.61708 75.402 7.97521L75.4717 8.08256C75.6037 8.29711 75.6918 8.51066 75.7358 8.72322L75.7507 8.80992H78.1647C78.4146 8.80992 78.6075 8.86226 78.7433 8.96694C78.8791 9.07162 78.947 9.23416 78.947 9.45455C78.947 9.78512 78.8058 10.0551 78.5232 10.2645C78.2407 10.4738 77.7952 10.5785 77.1868 10.5785H76.0295V20.876C76.0295 21.1846 76.0757 21.4215 76.1681 21.5868C76.2604 21.7521 76.4098 21.8512 76.6163 21.8843L78.018 22.0992C78.2679 22.1322 78.4526 22.2121 78.5721 22.3388C78.6917 22.4656 78.7514 22.6391 78.7514 22.8595ZM46.6593 23.2397C45.6814 23.7135 44.5405 23.9504 43.2366 23.9504C41.8567 23.9504 40.6207 23.6584 39.5287 23.0744C38.4367 22.4904 37.5755 21.6446 36.9453 20.5372C36.3151 19.4298 36 18.0826 36 16.4959C36 14.9642 36.3287 13.595 36.9861 12.3884C37.6434 11.1818 38.5589 10.2287 39.7324 9.52892C40.9059 8.8292 42.275 8.47934 43.8397 8.47934C45.1762 8.47934 46.3035 8.67769 47.2216 9.07438C48.1398 9.47107 48.8406 10.0083 49.3242 10.686C49.8077 11.3636 50.0495 12.1212 50.0495 12.9587C50.0495 13.8402 49.7968 14.5317 49.2916 15.0331C48.7863 15.5344 48.099 15.7851 47.2298 15.7851C46.3388 15.7851 45.6624 15.5289 45.2006 15.0165C44.7388 14.5041 44.5079 13.8017 44.5079 12.9091V11.8512C44.5079 11.3113 44.4101 10.9036 44.2145 10.6281C44.0189 10.3526 43.7419 10.2149 43.3833 10.2149C43.0247 10.2149 42.7015 10.3609 42.4135 10.6529C42.1256 10.9449 41.9028 11.3829 41.7453 11.9669C41.5877 12.551 41.509 13.2727 41.509 14.1322C41.509 15.3664 41.691 16.4022 42.055 17.2397C42.419 18.0771 42.9161 18.7052 43.5463 19.124C44.1765 19.5427 44.8936 19.7521 45.6977 19.7521C46.5018 19.7521 47.1755 19.6336 47.7187 19.3967C48.262 19.1598 48.6804 18.7603 48.9737 18.1983C49.1367 18.0441 49.2644 17.9449 49.3568 17.9008C49.4491 17.8567 49.5388 17.8347 49.6257 17.8347C49.7344 17.8457 49.824 17.8981 49.8946 17.9917C49.9652 18.0854 49.9951 18.2314 49.9843 18.4298C49.8973 19.5096 49.5659 20.4628 48.99 21.2893C48.4142 22.1157 47.6373 22.7658 46.6593 23.2397ZM63.2269 22.9091C62.0045 23.5813 60.5838 23.9174 58.9648 23.9174C57.3893 23.9174 56.0066 23.5895 54.8168 22.9339C53.627 22.2782 52.7007 21.3719 52.0379 20.2149C51.3751 19.0579 51.0437 17.719 51.0437 16.1983C51.0437 14.7438 51.3914 13.4353 52.0868 12.2727C52.7822 11.1102 53.7438 10.1873 54.9717 9.50413C56.1995 8.82094 57.612 8.47934 59.2093 8.47934C60.7957 8.47934 62.1811 8.80992 63.3655 9.47107C64.5498 10.1322 65.4734 11.0468 66.1362 12.2149C66.7991 13.3829 67.1305 14.7328 67.1305 16.2645C67.1305 17.719 66.7855 19.022 66.0955 20.1736C65.4055 21.3251 64.4493 22.2369 63.2269 22.9091ZM60.2035 22.1983C59.8667 22.2645 59.538 22.1157 59.2175 21.7521C58.8969 21.3884 58.5927 20.7769 58.3047 19.9174C58.0168 19.0579 57.7424 17.9284 57.4817 16.5289C57.2317 15.1295 57.0905 13.978 57.0579 13.0744C57.0253 12.1708 57.0905 11.4876 57.2535 11.0248C57.4165 10.562 57.6664 10.292 58.0032 10.2149C58.3401 10.1488 58.6687 10.2975 58.9893 10.6612C59.3098 11.0248 59.6168 11.6364 59.9102 12.4959C60.2035 13.3554 60.4806 14.4848 60.7414 15.8843C61.0022 17.2837 61.1461 18.438 61.1733 19.3471C61.2005 20.2562 61.1298 20.9421 60.9614 21.405C60.793 21.8678 60.5404 22.1322 60.2035 22.1983ZM89.3619 23.6198C89.8726 23.6198 90.1279 23.3664 90.1279 22.8595C90.1279 22.6391 90.0681 22.4656 89.9486 22.3388C89.8291 22.2121 89.6444 22.1322 89.3945 22.0992L87.9928 21.8843C87.7863 21.8512 87.6369 21.7521 87.5446 21.5868C87.4522 21.4215 87.406 21.1846 87.406 20.876V10.5785H88.5632C89.1717 10.5785 89.6172 10.4738 89.8997 10.2645C90.1822 10.0551 90.3235 9.78512 90.3235 9.45455C90.3235 9.23416 90.2556 9.07162 90.1198 8.96694C89.9839 8.86226 89.7911 8.80992 89.5411 8.80992H87.1271L87.1122 8.72322C87.0682 8.51066 86.9802 8.29711 86.8482 8.08256L86.7785 7.97521C86.534 7.61708 86.2325 7.25344 85.8739 6.8843C85.5154 6.51515 85.1568 6.12948 84.7982 5.72727C84.4397 5.32507 84.1381 4.89256 83.8937 4.42975C83.6492 3.96694 83.5269 3.47107 83.5269 2.94215C83.5269 2.42424 83.6302 2.02755 83.8366 1.75207C84.0431 1.47658 84.3473 1.33884 84.7493 1.33884C85.0644 1.33884 85.2981 1.42975 85.4502 1.61157C85.6023 1.79339 85.6784 2.07713 85.6784 2.46281V3.93388C85.6784 4.77135 85.9174 5.44353 86.3955 5.95041C86.8736 6.4573 87.5038 6.71074 88.2862 6.71074C88.9924 6.71074 89.571 6.49311 90.022 6.05785C90.4729 5.62259 90.6984 4.9697 90.6984 4.09917C90.6984 3.36088 90.5082 2.68044 90.1279 2.05785C89.7476 1.43526 89.1744 0.936639 88.4084 0.561983C87.6424 0.187328 86.678 0 85.5154 0C83.7117 0 82.3208 0.432507 81.3429 1.29752C80.365 2.16253 79.876 3.3168 79.876 4.76033C79.876 5.36639 79.9575 5.87603 80.1205 6.28926C80.2835 6.70248 80.4682 7.05785 80.6747 7.35537C80.8811 7.65289 81.0658 7.92011 81.2288 8.15702C81.3511 8.33471 81.4275 8.52014 81.458 8.71333L81.4692 8.80992H80.039C79.8299 8.80992 79.6602 8.85843 79.5301 8.95545L79.4767 9C79.3409 9.12672 79.273 9.28926 79.273 9.4876C79.273 9.68595 79.3273 9.85399 79.436 9.99174C79.5446 10.1295 79.7239 10.259 79.9738 10.3802L80.9192 10.6942C81.1256 10.7824 81.2669 10.8788 81.3429 10.9835C81.419 11.0882 81.457 11.2176 81.457 11.3719V20.9256C81.457 21.2121 81.4081 21.4325 81.3103 21.5868C81.2125 21.741 81.0767 21.8457 80.9029 21.9008L80.202 22.1157C80.0064 22.1928 79.8625 22.292 79.7701 22.4132C79.6777 22.5344 79.6316 22.6942 79.6316 22.8926C79.6316 23.124 79.6995 23.303 79.8353 23.4298C79.9711 23.5565 80.1477 23.6198 80.365 23.6198H89.3619ZM102.124 23.1405C101.07 23.6804 99.8528 23.9504 98.4728 23.9504C96.9516 23.9504 95.6151 23.6336 94.4633 23C93.3116 22.3664 92.4124 21.4793 91.7659 20.3388C91.1194 19.1983 90.7961 17.8788 90.7961 16.3802C90.7961 14.8044 91.1085 13.4242 91.7333 12.2397C92.3581 11.0551 93.2627 10.1322 94.447 9.47107C95.6314 8.80992 97.0548 8.47934 98.7173 8.47934C100.13 8.47934 101.347 8.75758 102.368 9.31405C103.39 9.87052 104.175 10.6253 104.723 11.5785C105.272 12.5317 105.546 13.5923 105.546 14.7603C105.546 15.2672 105.411 15.6667 105.139 15.9587L105.074 16.0235C104.806 16.2723 104.437 16.3967 103.965 16.3967H96.5147L96.5307 16.4729C96.7284 17.3804 97.0661 18.1071 97.5438 18.6529C98.3587 19.584 99.4453 20.0496 100.804 20.0496C101.673 20.0496 102.442 19.8512 103.11 19.4545C103.778 19.0578 104.226 18.5069 104.454 17.8017C104.585 17.6584 104.702 17.562 104.805 17.5124C104.908 17.4628 104.998 17.438 105.074 17.438C105.182 17.438 105.275 17.4821 105.351 17.5702C105.427 17.6584 105.465 17.8072 105.465 18.0165C105.465 19.0964 105.172 20.0854 104.585 20.9835C103.998 21.8815 103.178 22.6005 102.124 23.1405ZM96.3447 15.0717C96.3291 14.8181 96.3214 14.5546 96.3214 14.281C96.3214 13.2452 96.3975 12.4298 96.5496 11.8347C96.7017 11.2397 96.8973 10.8182 97.1363 10.5702C97.3754 10.3223 97.6416 10.1983 97.935 10.1983C98.3153 10.1983 98.6711 10.5234 99.0025 11.1736C99.3339 11.8237 99.4996 12.9036 99.4996 14.4132C99.4996 14.876 99.2932 15.1074 98.8803 15.1074H96.3467L96.3447 15.0717ZM117.705 23.1405C116.651 23.6804 115.434 23.9504 114.054 23.9504C112.533 23.9504 111.197 23.6336 110.045 23C108.893 22.3664 107.994 21.4793 107.347 20.3388C106.701 19.1983 106.378 17.8788 106.378 16.3802C106.378 14.8044 106.69 13.4242 107.315 12.2397C107.94 11.0551 108.844 10.1322 110.029 9.47107C111.213 8.80992 112.636 8.47934 114.299 8.47934C115.711 8.47934 116.928 8.75758 117.95 9.31405C118.971 9.87052 119.756 10.6253 120.305 11.5785C120.854 12.5317 121.128 13.5923 121.128 14.7603C121.128 15.2672 120.992 15.6667 120.721 15.9587L120.656 16.0235C120.388 16.2723 120.018 16.3967 119.547 16.3967H112.096L112.112 16.4729C112.31 17.3804 112.648 18.1071 113.125 18.6529C113.94 19.584 115.027 20.0496 116.385 20.0496C117.254 20.0496 118.023 19.8512 118.691 19.4545C119.36 19.0578 119.808 18.5069 120.036 17.8017C120.166 17.6584 120.283 17.562 120.386 17.5124C120.49 17.4628 120.579 17.438 120.655 17.438C120.764 17.438 120.856 17.4821 120.932 17.5702C121.008 17.6584 121.046 17.8072 121.046 18.0165C121.046 19.0964 120.753 20.0854 120.166 20.9835C119.58 21.8815 118.759 22.6005 117.705 23.1405ZM111.926 15.0717C111.911 14.8181 111.903 14.5546 111.903 14.281C111.903 13.2452 111.979 12.4298 112.131 11.8347C112.283 11.2397 112.479 10.8182 112.718 10.5702C112.957 10.3223 113.223 10.1983 113.517 10.1983C113.897 10.1983 114.253 10.5234 114.584 11.1736C114.915 11.8237 115.081 12.9036 115.081 14.4132C115.081 14.876 114.875 15.1074 114.462 15.1074H111.928L111.926 15.0717ZM131.6 23.4132C131.464 23.551 131.266 23.6198 131.005 23.6198H122.856C122.617 23.6198 122.429 23.5537 122.293 23.4215C122.158 23.2893 122.09 23.1074 122.09 22.876C122.09 22.6997 122.13 22.5537 122.212 22.438C122.293 22.3223 122.405 22.2149 122.546 22.1157L122.921 21.9669C123.062 21.9008 123.16 21.7961 123.214 21.6529C123.269 21.5096 123.296 21.2727 123.296 20.9421V12.5455C123.296 12.281 123.266 12.0909 123.206 11.9752C123.146 11.8595 123.046 11.7686 122.905 11.7025L122.481 11.6529C122.329 11.5647 122.217 11.4711 122.147 11.3719C122.076 11.2727 122.041 11.146 122.041 10.9917C122.041 10.8154 122.095 10.6584 122.204 10.5207C122.312 10.3829 122.497 10.2645 122.758 10.1653L127.387 8.82645C127.658 8.71625 127.886 8.63912 128.071 8.59504C128.256 8.55096 128.413 8.52893 128.544 8.52893C128.729 8.52893 128.867 8.59504 128.959 8.72727L128.989 8.77523C129.065 8.91344 129.118 9.13437 129.147 9.43802L129.271 12.0064L129.299 11.9116C129.354 11.7327 129.415 11.5611 129.481 11.3967C129.878 10.4105 130.402 9.67769 131.054 9.19835C131.706 8.71901 132.418 8.47934 133.189 8.47934C134.123 8.47934 134.841 8.79339 135.34 9.42149C135.84 10.0496 136.09 11.0028 136.09 12.281C136.09 13.5482 135.829 14.4793 135.308 15.0744C134.786 15.6694 134.113 15.9669 133.287 15.9669C132.483 15.9669 131.888 15.7631 131.502 15.3554C131.116 14.9477 130.913 14.3691 130.891 13.6198L130.875 12.9587C130.864 12.7052 130.815 12.5069 130.728 12.3636C130.641 12.2204 130.5 12.1488 130.304 12.1488C130.109 12.1488 129.937 12.2507 129.791 12.4545C129.644 12.6584 129.533 12.9697 129.457 13.3884C129.381 13.8072 129.343 14.3416 129.343 14.9917V20.8099C129.343 21.1185 129.391 21.3636 129.489 21.5455C129.587 21.7273 129.739 21.8402 129.946 21.8843L131.168 22.1322C131.396 22.1653 131.559 22.2507 131.657 22.3884C131.755 22.5262 131.804 22.6887 131.804 22.876C131.804 23.0964 131.736 23.2755 131.6 23.4132ZM144.631 23.9174C146.25 23.9174 147.67 23.5813 148.893 22.9091C150.115 22.2369 151.071 21.3251 151.761 20.1736C152.451 19.022 152.796 17.719 152.796 16.2645C152.796 14.7328 152.465 13.3829 151.802 12.2149C151.139 11.0468 150.216 10.1322 149.031 9.47107C147.847 8.80992 146.462 8.47934 144.875 8.47934C143.278 8.47934 141.865 8.82094 140.637 9.50413C139.41 10.1873 138.448 11.1102 137.753 12.2727C137.057 13.4353 136.71 14.7438 136.71 16.1983C136.71 17.719 137.041 19.0579 137.704 20.2149C138.367 21.3719 139.293 22.2782 140.483 22.9339C141.672 23.5895 143.055 23.9174 144.631 23.9174ZM144.883 21.7521C145.204 22.1157 145.533 22.2645 145.869 22.1983C146.206 22.1322 146.459 21.8678 146.627 21.405C146.796 20.9421 146.866 20.2562 146.839 19.3471C146.812 18.438 146.668 17.2837 146.407 15.8843C146.146 14.4848 145.869 13.3554 145.576 12.4959C145.283 11.6364 144.976 11.0248 144.655 10.6612C144.335 10.2975 144.006 10.1488 143.669 10.2149C143.332 10.292 143.082 10.562 142.919 11.0248C142.756 11.4876 142.691 12.1708 142.724 13.0744C142.756 13.978 142.898 15.1295 143.147 16.5289C143.408 17.9284 143.683 19.0579 143.971 19.9174C144.259 20.7769 144.563 21.3884 144.883 21.7521ZM165.721 23.9504C166.634 23.9504 167.384 23.7824 167.97 23.4463C168.557 23.1102 168.994 22.7107 169.282 22.2479C169.57 21.7851 169.714 21.3609 169.714 20.9752C169.714 20.8099 169.679 20.6722 169.608 20.562C169.538 20.4518 169.443 20.3967 169.323 20.3967C169.269 20.3967 169.22 20.4077 169.176 20.4298C169.133 20.4518 169.095 20.4848 169.062 20.5289C169.008 20.7273 168.924 20.865 168.81 20.9421C168.696 21.0193 168.573 21.0578 168.443 21.0578C168.258 21.0578 168.12 20.9945 168.027 20.8678C167.935 20.741 167.889 20.573 167.889 20.3636V13.0579C167.889 11.6033 167.397 10.4766 166.414 9.67769C165.43 8.87879 163.89 8.47934 161.793 8.47934C160.163 8.47934 158.802 8.6832 157.71 9.09091C156.618 9.49862 155.798 10.0193 155.249 10.6529C154.701 11.2865 154.426 11.9339 154.426 12.595C154.426 13.3003 154.63 13.8375 155.037 14.2066C155.445 14.5758 156.034 14.7603 156.806 14.7603C157.751 14.7603 158.495 14.5041 159.039 13.9917C159.582 13.4793 159.854 12.8154 159.854 12V10.7438C159.854 10.4353 159.949 10.1956 160.139 10.0248C160.329 9.85399 160.565 9.76859 160.848 9.76859C161.152 9.76859 161.394 9.88154 161.573 10.1074C161.752 10.3333 161.842 10.6391 161.842 11.0248L161.842 15.843L161.755 15.8241C161.493 15.7735 161.189 15.7446 160.844 15.7373L160.669 15.7355C158.332 15.7355 156.591 16.1322 155.445 16.9256C154.299 17.719 153.725 18.8264 153.725 20.2479C153.725 21.3278 154.119 22.2149 154.907 22.9091C155.695 23.6033 156.741 23.9504 158.044 23.9504C159.022 23.9504 159.935 23.7493 160.783 23.3471C161.418 23.0455 161.935 22.6493 162.332 22.1586L162.355 22.1299L162.379 22.2039C162.504 22.5612 162.733 22.8813 163.067 23.1642L163.17 23.2479C163.773 23.7163 164.624 23.9504 165.721 23.9504ZM160.106 20.8347C160.372 21.1928 160.723 21.3719 161.158 21.3719L161.251 21.3687C161.436 21.3558 161.615 21.3041 161.789 21.2137L161.842 21.1837V16.9422L161.761 16.9174C161.576 16.8678 161.359 16.843 161.109 16.843C160.685 16.843 160.345 17.0413 160.09 17.438C159.835 17.8347 159.707 18.4187 159.707 19.1901C159.707 19.9284 159.84 20.4766 160.106 20.8347ZM177.212 24C179.146 24 180.629 23.5537 181.661 22.6612C182.694 21.7686 183.21 20.551 183.21 19.0083C183.21 18.0716 183.036 17.2507 182.688 16.5455C182.34 15.8402 181.732 15.2149 180.863 14.6694C179.993 14.124 178.771 13.6088 177.195 13.124C176.609 12.9366 176.155 12.7466 175.834 12.5537C175.514 12.3609 175.294 12.1543 175.174 11.9339C175.055 11.7135 174.995 11.4766 174.995 11.2231C174.995 10.8485 175.131 10.5455 175.403 10.314C175.674 10.0826 176.076 9.96694 176.609 9.96694C177.348 9.96694 178.046 10.2149 178.703 10.7107C179.36 11.2066 180.086 12.0551 180.879 13.2562C181.085 13.5096 181.292 13.6942 181.498 13.8099C181.705 13.9256 181.9 13.9614 182.085 13.9174C182.313 13.8512 182.454 13.6997 182.509 13.4628C182.563 13.2259 182.552 12.8871 182.476 12.4463L182.052 9.40496C182.009 9.0854 181.927 8.8595 181.808 8.72727C181.688 8.59504 181.531 8.52893 181.335 8.52893C181.161 8.52893 180.944 8.58953 180.683 8.71074C180.423 8.83196 180.164 8.95592 179.909 9.08264C179.654 9.20937 179.461 9.27273 179.331 9.27273C179.211 9.27273 179.034 9.20661 178.801 9.07438C178.567 8.94215 178.239 8.80992 177.815 8.67769C177.391 8.54545 176.842 8.47934 176.169 8.47934C175.049 8.47934 174.042 8.6832 173.145 9.09091C172.249 9.49862 171.542 10.0799 171.026 10.8347C170.51 11.5895 170.252 12.4904 170.252 13.5372C170.252 14.4628 170.445 15.2727 170.831 15.9669C171.217 16.6612 171.806 17.2562 172.599 17.7521C173.392 18.2479 174.392 18.6501 175.598 18.9587C176.38 19.168 176.981 19.3802 177.399 19.595C177.817 19.8099 178.105 20.0441 178.263 20.2975C178.421 20.551 178.499 20.832 178.499 21.1405C178.499 21.5482 178.363 21.8843 178.092 22.1488C177.82 22.4132 177.407 22.5455 176.853 22.5455C176.332 22.5455 175.834 22.4325 175.362 22.2066C174.889 21.9807 174.403 21.5923 173.903 21.0413C173.403 20.4904 172.844 19.7355 172.224 18.7769C172.04 18.5234 171.83 18.3471 171.597 18.2479C171.363 18.1488 171.127 18.1543 170.888 18.2645C170.66 18.3526 170.513 18.5399 170.448 18.8264C170.383 19.1129 170.399 19.4656 170.497 19.8843L171.002 23.1736C171.078 23.5041 171.187 23.7245 171.328 23.8347C171.469 23.9449 171.621 24 171.784 24C171.969 24 172.194 23.9394 172.461 23.8182L173.259 23.4545C173.525 23.3333 173.74 23.2727 173.903 23.2727C174.066 23.2727 174.281 23.3333 174.547 23.4545C174.813 23.5758 175.161 23.697 175.59 23.8182C176.019 23.9394 176.56 24 177.212 24ZM192.663 23.3802C191.946 23.7603 191.098 23.9504 190.12 23.9504C188.469 23.9504 187.227 23.5482 186.396 22.7438C185.565 21.9394 185.149 20.6722 185.149 18.9422V11.4711C185.149 11.2397 185.127 11.0634 185.084 10.9421C185.041 10.8209 184.932 10.7218 184.758 10.6446L183.992 10.3967C183.807 10.3085 183.688 10.2011 183.633 10.0744C183.579 9.94766 183.552 9.79063 183.552 9.60331C183.552 9.3719 183.633 9.18182 183.796 9.03306C183.959 8.8843 184.16 8.80992 184.399 8.80992H185.198C185.296 8.80992 185.399 8.77135 185.508 8.69421C185.616 8.61708 185.763 8.46281 185.948 8.23141L188.963 5.70248C189.18 5.43802 189.398 5.23691 189.615 5.09917C189.832 4.96143 190.05 4.89256 190.267 4.89256C190.517 4.89256 190.712 4.9697 190.854 5.12397L190.898 5.17866C191.01 5.3332 191.066 5.55739 191.066 5.85124L191.065 8.80992H194.472C194.711 8.80992 194.896 8.86226 195.026 8.96694C195.157 9.07163 195.222 9.23416 195.222 9.45455C195.222 9.76309 195.086 10.0275 194.814 10.2479L194.754 10.2935C194.48 10.4835 194.065 10.5785 193.51 10.5785H191.065L191.066 18.1157C191.066 18.9421 191.204 19.5537 191.481 19.9504C191.758 20.3471 192.163 20.5455 192.695 20.5455C192.924 20.5455 193.136 20.4959 193.331 20.3967C193.527 20.2975 193.703 20.168 193.861 20.0083C194.018 19.8485 194.168 19.6694 194.309 19.4711C194.45 19.2727 194.586 19.0744 194.717 18.876C194.825 18.832 194.92 18.8512 195.002 18.9339C195.083 19.0165 195.119 19.1846 195.108 19.438C195.032 20.3306 194.784 21.1157 194.366 21.7934C193.948 22.4711 193.38 23 192.663 23.3802ZM203.339 23.9504C204.718 23.9504 205.935 23.6804 206.989 23.1405C208.043 22.6005 208.864 21.8815 209.451 20.9835C210.037 20.0854 210.331 19.0964 210.331 18.0165C210.331 17.8072 210.293 17.6584 210.217 17.5702C210.14 17.4821 210.048 17.438 209.939 17.438C209.863 17.438 209.774 17.4628 209.671 17.5124C209.567 17.562 209.451 17.6584 209.32 17.8017C209.092 18.5069 208.644 19.0578 207.975 19.4545C207.307 19.8512 206.538 20.0496 205.669 20.0496C204.311 20.0496 203.224 19.584 202.409 18.6529C201.932 18.1071 201.594 17.3804 201.396 16.4729L201.38 16.3967H208.831C209.303 16.3967 209.672 16.2723 209.94 16.0235L210.005 15.9587C210.276 15.6667 210.412 15.2672 210.412 14.7603C210.412 13.5923 210.138 12.5317 209.589 11.5785C209.04 10.6253 208.255 9.87052 207.234 9.31405C206.212 8.75758 204.996 8.47934 203.583 8.47934C201.921 8.47934 200.497 8.80992 199.313 9.47107C198.128 10.1322 197.224 11.0551 196.599 12.2397C195.974 13.4242 195.662 14.8044 195.662 16.3802C195.662 17.8788 195.985 19.1983 196.632 20.3388C197.278 21.4793 198.177 22.3664 199.329 23C200.481 23.6336 201.817 23.9504 203.339 23.9504ZM201.187 14.281C201.187 14.5546 201.195 14.8181 201.21 15.0717L201.212 15.1074H203.746C204.159 15.1074 204.365 14.876 204.365 14.4132C204.365 12.9036 204.2 11.8237 203.868 11.1736C203.537 10.5234 203.181 10.1983 202.801 10.1983C202.507 10.1983 202.241 10.3223 202.002 10.5702C201.763 10.8182 201.567 11.2397 201.415 11.8347C201.263 12.4298 201.187 13.2452 201.187 14.281ZM220.289 23.6198C220.55 23.6198 220.748 23.551 220.884 23.4132C221.02 23.2755 221.088 23.0964 221.088 22.876C221.088 22.6887 221.039 22.5262 220.941 22.3884C220.843 22.2507 220.68 22.1653 220.452 22.1322L219.23 21.8843C219.023 21.8402 218.871 21.7273 218.773 21.5455C218.676 21.3636 218.627 21.1185 218.627 20.8099V14.9917C218.627 14.3416 218.665 13.8072 218.741 13.3884C218.817 12.9697 218.928 12.6584 219.075 12.4545C219.222 12.2507 219.393 12.1488 219.588 12.1488C219.784 12.1488 219.925 12.2204 220.012 12.3636C220.099 12.5069 220.148 12.7052 220.159 12.9587L220.175 13.6198C220.197 14.3691 220.4 14.9477 220.786 15.3554C221.172 15.7631 221.767 15.9669 222.571 15.9669C223.397 15.9669 224.07 15.6694 224.592 15.0744C225.114 14.4793 225.374 13.5482 225.374 12.281C225.374 11.0028 225.124 10.0496 224.625 9.42149C224.125 8.79339 223.408 8.47934 222.473 8.47934C221.702 8.47934 220.99 8.71901 220.338 9.19835C219.686 9.67769 219.162 10.4105 218.765 11.3967C218.699 11.5611 218.639 11.7327 218.583 11.9116L218.555 12.0069L218.431 9.43802C218.402 9.13437 218.35 8.91344 218.273 8.77523L218.244 8.72727C218.151 8.59504 218.013 8.52893 217.828 8.52893C217.698 8.52893 217.54 8.55096 217.355 8.59504C217.171 8.63912 216.942 8.71625 216.671 8.82645L212.042 10.1653C211.781 10.2645 211.596 10.3829 211.488 10.5207C211.379 10.6584 211.325 10.8154 211.325 10.9917C211.325 11.146 211.36 11.2727 211.431 11.3719C211.501 11.4711 211.613 11.5647 211.765 11.6529L212.189 11.7025C212.33 11.7686 212.43 11.8595 212.49 11.9752C212.55 12.0909 212.58 12.281 212.58 12.5455V20.9421C212.58 21.2727 212.553 21.5096 212.498 21.6529C212.444 21.7961 212.346 21.9008 212.205 21.9669L211.83 22.1157C211.689 22.2149 211.577 22.3223 211.496 22.438C211.414 22.5537 211.374 22.6997 211.374 22.876C211.374 23.1074 211.442 23.2893 211.577 23.4215C211.713 23.5537 211.901 23.6198 212.14 23.6198H220.289ZM237.452 22.6612C236.419 23.5537 234.936 24 233.002 24C232.35 24 231.81 23.9394 231.38 23.8182C230.951 23.697 230.603 23.5758 230.337 23.4545C230.071 23.3333 229.856 23.2727 229.693 23.2727C229.53 23.2727 229.316 23.3333 229.05 23.4545L228.251 23.8182C227.985 23.9394 227.759 24 227.575 24C227.412 24 227.26 23.9449 227.118 23.8347C226.977 23.7245 226.868 23.5041 226.792 23.1736L226.287 19.8843C226.189 19.4656 226.173 19.1129 226.238 18.8264C226.303 18.5399 226.45 18.3526 226.678 18.2645C226.917 18.1543 227.154 18.1488 227.387 18.2479C227.621 18.3471 227.83 18.5234 228.015 18.7769C228.634 19.7355 229.194 20.4904 229.693 21.0413C230.193 21.5923 230.68 21.9807 231.152 22.2066C231.625 22.4325 232.122 22.5455 232.644 22.5455C233.198 22.5455 233.611 22.4132 233.882 22.1488C234.154 21.8843 234.29 21.5482 234.29 21.1405C234.29 20.832 234.211 20.551 234.053 20.2975C233.896 20.0441 233.608 19.8099 233.19 19.595C232.771 19.3802 232.171 19.168 231.389 18.9587C230.182 18.6501 229.183 18.2479 228.39 17.7521C227.596 17.2562 227.007 16.6612 226.621 15.9669C226.235 15.2727 226.043 14.4628 226.043 13.5372C226.043 12.4904 226.301 11.5895 226.817 10.8347C227.333 10.0799 228.039 9.49862 228.936 9.09091C229.832 8.6832 230.84 8.47934 231.959 8.47934C232.633 8.47934 233.181 8.54545 233.605 8.67769C234.029 8.80992 234.358 8.94215 234.591 9.07438C234.825 9.20661 235.001 9.27273 235.121 9.27273C235.251 9.27273 235.444 9.20937 235.7 9.08264C235.955 8.95592 236.213 8.83196 236.474 8.71074C236.734 8.58953 236.952 8.52893 237.126 8.52893C237.321 8.52893 237.479 8.59504 237.598 8.72727C237.718 8.8595 237.799 9.0854 237.843 9.40496L238.267 12.4463C238.343 12.8871 238.353 13.2259 238.299 13.4628C238.245 13.6997 238.104 13.8512 237.875 13.9174C237.691 13.9614 237.495 13.9256 237.289 13.8099C237.082 13.6942 236.876 13.5096 236.669 13.2562C235.876 12.0551 235.151 11.2066 234.493 10.7107C233.836 10.2149 233.138 9.96694 232.399 9.96694C231.867 9.96694 231.465 10.0826 231.193 10.314C230.921 10.5455 230.785 10.8485 230.785 11.2231C230.785 11.4766 230.845 11.7135 230.965 11.9339C231.084 12.1543 231.304 12.3609 231.625 12.5537C231.945 12.7466 232.399 12.9366 232.986 13.124C234.561 13.6088 235.784 14.124 236.653 14.6694C237.522 15.2149 238.131 15.8402 238.478 16.5455C238.826 17.2507 239 18.0716 239 19.0083C239 20.551 238.484 21.7686 237.452 22.6612Z" fill="#333D4B"/>
<path fill-rule="evenodd" clip-rule="evenodd" d="M17.4893 4.00268C13.9749 0.491126 8.76554 -0.0143813 5.87661 2.87766C2.98618 5.76821 3.49166 10.9778 7.00008 14.4908C7.93606 15.4269 9.01454 16.1424 10.153 16.6554C10.5265 14.4848 11.5975 12.3983 13.2234 10.6853C12.685 10.4933 12.133 10.3313 11.557 10.1738C8.14606 9.23776 6.4511 6.39222 6.05511 3.05617C6.38262 3.45002 6.68082 3.86313 6.97814 4.27503C7.555 5.0742 8.12855 5.86879 8.90654 6.50922C10.1168 7.50576 11.4452 7.89044 12.8985 8.3113C12.9547 8.32755 13.011 8.34385 13.0674 8.36025C13.7559 8.55975 14.3544 8.85525 14.9034 9.20026C16.3464 8.14574 17.9738 7.44373 19.6538 7.15423C19.1423 6.01571 18.4253 4.93869 17.4893 4.00268ZM11.5465 17.4894C11.77 15.3159 12.823 13.1903 14.5104 11.5028C18.0248 7.99124 23.2342 7.48423 26.1232 10.3778C29.0136 13.2683 28.5096 18.4779 24.9967 21.991C23.3092 23.6785 21.1838 24.7315 19.0103 24.9565C18.7208 24.985 18.4343 25 18.1538 25C16.2849 25 14.6154 24.3445 13.3854 23.1145C11.9695 21.7 11.3155 19.7019 11.5465 17.4894ZM16.6869 19.2729C17.8388 18.3939 19.0853 18.0459 20.4413 17.6754C23.8522 16.7394 25.5457 13.8938 25.9432 10.5578C25.6184 10.9494 25.3224 11.3598 25.0273 11.7688C24.4487 12.5709 23.8735 13.3681 23.0917 14.0108C21.8778 15.009 20.5463 15.3943 19.0864 15.8168L18.9308 15.8619C15.5934 16.8309 13.9434 19.6524 13.5624 22.936C13.8912 22.541 14.1924 22.1309 14.492 21.7229C15.1423 20.8374 15.7852 19.962 16.6869 19.2729Z" fill="#0E8784"/>
</g>
<defs>
<filter id="filter0_d_0_2036" x="0" y="0" width="243" height="33" filterUnits="userSpaceOnUse" color-interpolation-filters="sRGB">
<feFlood flood-opacity="0" result="BackgroundImageFix"/>
<feColorMatrix in="SourceAlpha" type="matrix" values="0 0 0 0 0 0 0 0 0 0 0 0 0 0 0 0 0 0 127 0" result="hardAlpha"/>
<feOffset dy="4"/>
<feGaussianBlur stdDeviation="2"/>
<feComposite in2="hardAlpha" operator="out"/>
<feColorMatrix type="matrix" values="0 0 0 0 0 0 0 0 0 0 0 0 0 0 0 0 0 0 0.25 0"/>
<feBlend mode="normal" in2="BackgroundImageFix" result="effect1_dropShadow_0_2036"/>
<feBlend mode="normal" in="SourceGraphic" in2="effect1_dropShadow_0_2036" result="shape"/>
</filter>
</defs>
</svg>
